<svg xmlns="http://www.w3.org/2000/svg" version="1.1" xmlns:xlink="http://www.w3.org/1999/xlink"
    width="24" height="24" x="0" y="0" viewBox="0 0 4000 4000"
    style="enable-background:new 0 0 512 512" xml:space="preserve" class=""><g><linearGradient id="a" x1="978.52" x2="3021.481" y1="978.52" y2="3021.481" gradientUnits="userSpaceOnUse"><stop stop-opacity="1" stop-color="#57ebdb" offset="0"></stop><stop stop-opacity="1" stop-color="#403ddb" offset="1"></stop></linearGradient><path fill="url(#a)" d="M1552 880h-336c-185.281 0-336 150.719-336 336v336c0 185.281 150.719 336 336 336h336c185.281 0 336-150.719 336-336v-336c0-185.281-150.719-336-336-336zm112 672c0 61.797-50.258 112-112 112h-336c-61.742 0-112-50.203-112-112v-336c0-61.797 50.258-112 112-112h336c61.742 0 112 50.203 112 112zm1120-672h-336c-185.281 0-336 150.719-336 336v336c0 185.281 150.719 336 336 336h336c185.281 0 336-150.719 336-336v-336c0-185.281-150.719-336-336-336zm112 672c0 61.797-50.258 112-112 112h-336c-61.742 0-112-50.203-112-112v-336c0-61.797 50.258-112 112-112h336c61.742 0 112 50.203 112 112zm-1344 560h-336c-185.281 0-336 150.719-336 336v336c0 185.281 150.719 336 336 336h336c185.281 0 336-150.719 336-336v-336c0-185.281-150.719-336-336-336zm112 672c0 61.797-50.258 112-112 112h-336c-61.742 0-112-50.203-112-112v-336c0-61.797 50.258-112 112-112h336c61.742 0 112 50.203 112 112zm1120-672h-336c-185.281 0-336 150.719-336 336v336c0 185.281 150.719 336 336 336h336c185.281 0 336-150.719 336-336v-336c0-185.281-150.719-336-336-336zm112 672c0 61.797-50.258 112-112 112h-336c-61.742 0-112-50.203-112-112v-336c0-61.797 50.258-112 112-112h336c61.742 0 112 50.203 112 112z" opacity="1" data-original="url(#a)" class=""></path></g></svg>