<svg xmlns="http://www.w3.org/2000/svg" version="1.1" xmlns:xlink="http://www.w3.org/1999/xlink"
    width="24" height="24" x="0" y="0" viewBox="0 0 368 488.781"
    style="enable-background:new 0 0 512 512" xml:space="preserve" class=""><g><linearGradient id="a" x1="184" x2="184" y1="488.781" y2="0" gradientUnits="userSpaceOnUse"><stop stop-opacity="1" stop-color="#57ebdb" offset="0.0019305019305019305"></stop><stop stop-opacity="1" stop-color="#403ddb" offset="1"></stop></linearGradient><path fill="url(#a)" d="m153.689 230.048-.845-1.689 14.311-7.155.845 1.689c3.05 6.099 9.181 9.888 16 9.888s12.95-3.789 16-9.888l.845-1.689 14.311 7.155-.845 1.689c-5.777 11.555-17.392 18.733-30.311 18.733s-24.533-7.178-30.311-18.733zM144 280.781v-2.461c-25.671-10.726-43.559-34.207-47.272-61.539H88c-22.056 0-40-17.944-40-40 0-13.058 6.291-24.673 16-31.978v-25.394c0-7.94 1.558-15.916 4.51-23.3A54.699 54.699 0 0 1 64 74.326c0-27.74 20.776-51.104 48.326-54.345l69.614-8.19a238.867 238.867 0 0 0 47.53-10.6L233.045 0l45.395 28.372C294.445 38.375 304 55.615 304 74.488a54.369 54.369 0 0 1-4.491 21.668c2.94 7.371 4.491 15.33 4.491 23.252v25.394c9.709 7.305 16 18.92 16 31.978 0 22.056-17.944 40-40 40h-8.728c-3.713 27.331-21.601 50.813-47.272 61.539v2.461h8c74.991 0 136 61.009 136 136v8h-16v64H81.443c-35.602 0-64.633-28.58-65.406-64H0v-8c0-74.991 61.009-136 136-136h8zm59.009 48.305A102.758 102.758 0 0 1 240 339.018v-41.966a121.38 121.38 0 0 0-4.734-.224zm-38.018 0-32.258-32.258c-1.586.043-3.163.12-4.734.224v41.966a102.753 102.753 0 0 1 36.992-9.932zM16.264 408.781h45.518a44.095 44.095 0 0 1 13.295-8.616L80 398.114v-21.333h16v14.666l49.82-20.758 7.27-18.174a38.263 38.263 0 0 1 3.15-6.14 87.022 87.022 0 0 0-31.803 13.062L112 367.729V299.2c-52.167 10.632-92.139 55.215-95.736 109.581zm65.179 64a49.292 49.292 0 0 0 33.643-13.211l86.569-80.386A19.914 19.914 0 0 0 208 364.636c0-10.948-8.906-19.854-19.854-19.854-8.948 0-16.877 5.368-20.2 13.676l-9.766 24.416-76.949 32.062A27.923 27.923 0 0 0 64 440.781H48c0-5.593 1.048-11 2.993-16H32.037c.768 26.596 22.627 48 49.406 48zm254.557-48h-48v48h48zm-80-125.582v68.529l-12.438-8.292a87.21 87.21 0 0 0-23.456-11.02A35.622 35.622 0 0 1 224 364.635a35.962 35.962 0 0 1-11.458 26.273l-86.569 80.386c-.549.51-1.114.998-1.678 1.487H272v-96h16v32h63.736c-3.597-54.366-43.569-98.949-95.736-109.582zm-144-98.418h40c4.411 0 8-3.589 8-8v-40h-48zm144-64v-1.373c0-10.352-3.35-20.188-9.539-28.271-15.606 8.946-33.202 13.644-51.306 13.644H144.72c-8.297 0-15.877-3.109-21.651-8.217-6.706 6.202-10.766 14.978-11.038 24.217zm-48 56c0 4.411 3.589 8 8 8h40v-48h-48zm96-16c0-13.233-10.767-24-24-24h-8v20.687l10.343-10.343 11.313 11.313L272 196.094v4.687h8c13.233 0 24-10.767 24-24zm-16-39.195v-18.177c0-2.006-.148-4.013-.41-6.008a54.997 54.997 0 0 1-4.001 3.553l-12.197 9.757c.395 2.859.607 5.761.607 8.697v1.373h8c2.74 0 5.415.278 8.001.805zM80 74.326c0 11.827 5.297 22.847 14.532 30.235l8.866 7.093a50.518 50.518 0 0 1 10.585-12.372A32.582 32.582 0 0 1 112 88.06c0-12.474 6.931-23.688 18.087-29.267l2.335-1.167 7.154 14.312-2.334 1.167c-5.7 2.849-9.242 8.58-9.242 14.955 0 9.22 7.501 16.721 16.721 16.721h50.435a86.997 86.997 0 0 0 48.407-14.656l5.457-3.638 4.637 4.638a62.575 62.575 0 0 1 12.984 18.899l6.954-5.563C282.75 97.136 288 86.212 288 74.488c0-13.321-6.744-25.488-18.04-32.548l-32.951-20.595c-7.875 21.898-27.833 38.021-51.832 40.687l-24.293 2.699-1.767-15.902 24.293-2.699c15.729-1.748 29.462-11.724 36.392-25.348a254.956 254.956 0 0 1-35.992 6.9l-69.615 8.19C94.701 38.166 80 54.697 80 74.326zm0 63.26a40.028 40.028 0 0 1 8-.805h8.032a49.626 49.626 0 0 1 1.14-9.617l-12.636-10.109a55.624 55.624 0 0 1-4.125-3.67 46.206 46.206 0 0 0-.412 6.023v18.178zm8 63.195h8v-4.687l-21.657-21.657 11.313-11.313L96 173.467V152.78h-8c-13.233 0-24 10.767-24 24s10.767 24.001 24 24.001zm66.53 64.41 5.47 1.823v13.766c0 5.608-2.906 10.543-7.286 13.401L184 325.467l31.286-31.286c-4.38-2.858-7.286-7.793-7.286-13.401v-13.766l5.47-1.823a62.107 62.107 0 0 0 41.618-48.411H216c-13.233 0-24-10.767-24-24v-40h-16v40c0 13.233-10.767 24-24 24h-39.088a62.107 62.107 0 0 0 41.618 48.411z" opacity="1" data-original="url(#a)" class=""></path></g></svg>