<svg xmlns="http://www.w3.org/2000/svg" version="1.1" xmlns:xlink="http://www.w3.org/1999/xlink"
    width="24" height="24" x="0" y="0" viewBox="0 0 512 512"
    style="enable-background:new 0 0 512 512" xml:space="preserve" class=""><g><linearGradient id="a" x1="34.03" x2="481.304" y1="494.506" y2="47.232" gradientUnits="userSpaceOnUse"><stop stop-opacity="1" stop-color="#57ebdb" offset="0"></stop><stop stop-opacity="1" stop-color="#403ddb" offset="1"></stop></linearGradient><path fill="url(#a)" d="M470.929 288.321c-16.78 0-30.433 13.653-30.433 30.433 0 11.156 6.051 20.901 15.025 26.201v45.124c-61.882 38.912-122.172 38.271-184.113-2.072v-43.05c8.976-5.299 15.027-15.045 15.027-26.202 0-16.78-13.653-30.433-30.435-30.433-16.78 0-30.433 13.653-30.433 30.433 0 11.157 6.052 20.903 15.027 26.202v44.431c-61.902 39.389-122.192 39.176-184.113-.69v-43.743c8.974-5.299 15.025-15.045 15.025-26.201 0-16.78-13.653-30.433-30.433-30.433-16.782 0-30.435 13.653-30.435 30.433 0 11.156 6.052 20.903 15.027 26.202v134.813c0 8.497 6.911 15.408 15.408 15.408s15.408-6.911 15.408-15.408v-79.774c61.343 37.324 122.7 37.598 184.113.688v79.086c0 8.497 6.911 15.408 15.406 15.408 8.497 0 15.408-6.911 15.408-15.408v-80.463c59.947 36.924 121.36 39.315 184.113 2.067v78.396c0 8.497 6.911 15.408 15.408 15.408s15.408-6.911 15.408-15.408V344.954c8.974-5.299 15.025-15.045 15.025-26.201.001-16.779-13.653-30.432-30.433-30.432zM46.859 479.768c0 3.19-2.596 5.786-5.786 5.786s-5.786-2.596-5.786-5.786V348.621c3.908.756 7.657.757 11.572 0zm-5.786-140.201c-11.476 0-20.813-9.338-20.813-20.813s9.338-20.811 20.813-20.811 20.811 9.335 20.811 20.811-9.336 20.813-20.811 20.813zm220.713 140.201c0 3.19-2.596 5.786-5.786 5.786s-5.784-2.596-5.784-5.786V348.622c3.908.755 7.655.757 11.569 0v131.146zM256 339.567c-11.476 0-20.811-9.338-20.811-20.813s9.335-20.811 20.811-20.811 20.813 9.335 20.813 20.811-9.337 20.813-20.813 20.813zm220.715 140.201c0 3.19-2.596 5.786-5.786 5.786s-5.786-2.596-5.786-5.786c.004-22.649.095-129.274 0-131.147 3.908.756 7.657.757 11.572 0zm-5.786-140.201c-11.476 0-20.811-9.338-20.811-20.813s9.335-20.811 20.811-20.811 20.811 9.335 20.811 20.811-9.335 20.813-20.811 20.813zM24.69 197.263h124.413a4.811 4.811 0 0 0 4.811-4.811V66.708a4.811 4.811 0 0 0-4.811-4.811H24.69a4.811 4.811 0 0 0-4.811 4.811v125.745a4.81 4.81 0 0 0 4.811 4.81zm4.811-125.744h114.791v116.122H29.501zm95.805 14.177H48.487a4.811 4.811 0 0 0-4.811 4.811v78.149a4.811 4.811 0 0 0 4.811 4.811h76.819a4.811 4.811 0 0 0 4.811-4.811V90.507a4.811 4.811 0 0 0-4.811-4.811zm-4.811 78.149H53.298V95.318h67.197zm249.067 33.418h124.415a4.811 4.811 0 0 0 4.811-4.811V66.708a4.811 4.811 0 0 0-4.811-4.811H369.562a4.811 4.811 0 0 0-4.811 4.811v125.745a4.81 4.81 0 0 0 4.811 4.81zm4.811-125.744h114.793v116.122H374.373zm95.805 14.177h-76.819a4.811 4.811 0 0 0-4.811 4.811v78.149a4.811 4.811 0 0 0 4.811 4.811h76.819a4.811 4.811 0 0 0 4.811-4.811V90.507a4.811 4.811 0 0 0-4.811-4.811zm-4.811 78.149H398.17V95.318h67.197zm-280.156 78.491h148.245a4.811 4.811 0 0 0 4.811-4.811V21.635a4.811 4.811 0 0 0-4.811-4.811H185.211a4.811 4.811 0 0 0-4.811 4.811v215.89a4.811 4.811 0 0 0 4.811 4.811zm4.811-215.89h138.622v206.268H190.022zm119.635 14.175H209.008a4.811 4.811 0 0 0-4.811 4.811v168.297a4.811 4.811 0 0 0 4.811 4.811h100.649a4.811 4.811 0 0 0 4.811-4.811V45.432a4.812 4.812 0 0 0-4.811-4.811zm-4.811 168.296h-91.027V50.243h91.027z" opacity="1" data-original="url(#a)" class=""></path></g></svg>