<svg xmlns="http://www.w3.org/2000/svg" version="1.1" xmlns:xlink="http://www.w3.org/1999/xlink"
    width="100" height="100" x="0" y="0" viewBox="0 0 100 100"
    style="enable-background:new 0 0 512 512" xml:space="preserve" class=""><g><path d="M51.9 9.2H48c-8.3 0-15 6.8-15 15.1v25.4c0 8.3 6.8 15.1 15.1 15.1H52c8.3 0 15-6.8 15-15.1V24.3C67 16 60.3 9.2 51.9 9.2zM64 49.7c0 6.7-5.4 12.1-12.1 12.1H48c-6.7 0-12.1-5.4-12.1-12.1V24.3c0-6.7 5.4-12.1 12.1-12.1h3.9c6.7 0 12.1 5.4 12.1 12.1z" fill="#839cb5" opacity="1" data-original="#000000" class=""></path><path d="M50 20.6c-.8 0-1.5.7-1.5 1.5v10.7c0 .8.7 1.5 1.5 1.5s1.5-.7 1.5-1.5V22.1c0-.9-.7-1.5-1.5-1.5zM56.1 81l-4.6 4.6V72.2c0-.8-.7-1.5-1.5-1.5s-1.5.7-1.5 1.5v13.5L43.9 81c-.6-.6-1.5-.6-2.1 0s-.6 1.5 0 2.1l7.2 7.2c.1.1.3.3.5.3.2.1.4.1.5.1s.4 0 .5-.1c.2-.1.4-.2.5-.3l7.2-7.2c.6-.6.6-1.5 0-2.1s-1.5-.5-2.1 0z" fill="#839cb5" opacity="1" data-original="#000000" class=""></path></g></svg>