<svg xmlns="http://www.w3.org/2000/svg" version="1.1" xmlns:xlink="http://www.w3.org/1999/xlink"
    width="24" height="24" x="0" y="0" viewBox="0 0 64 64"
    style="enable-background:new 0 0 512 512" xml:space="preserve" class=""><g><linearGradient id="a" x1="4" x2="60" y1="32" y2="32" gradientUnits="userSpaceOnUse"><stop stop-opacity="1" stop-color="#57ebdb" offset="0"></stop><stop stop-opacity="1" stop-color="#403ddb" offset="0.9942084942084942"></stop></linearGradient><path fill="url(#a)" d="M40.57 17.52a3.561 3.561 0 0 0-.882-4.934c-.007-.007-1.156-.802-1.16-.811-4.116-2.736-7.115.13-10.467 2.39l-.739.328a.058.058 0 0 0-.03.014l-15.197 6.746a3.107 3.107 0 0 0-1.845 2.767 65.17 65.17 0 0 1-.94 9.02 7.72 7.72 0 0 1-3.419.63 1.978 1.978 0 0 0-1.84 2.414c1.602 6.615 6.427 8.84 11.167 9.42a2.988 2.988 0 0 0 5.279.822zm-27.666 5.562 14.19-6.3a4.207 4.207 0 0 1-2.552 4.737L12.179 25.76c.17-.999-.292-2.17.725-2.679zM11.266 33.47q.368-2.222.594-4.175l2.583 1.8a.818.818 0 0 1 .204 1.137l-2.97 4.26a.813.813 0 0 1-1.131.197l-1.897-1.322c1.598-.34 2.456-.957 2.617-1.897zM6.191 36.09l3.211 2.237a2.816 2.816 0 0 0 3.916-.693l2.97-4.262a2.82 2.82 0 0 0-.701-3.92l-2.641-1.84 5.058-1.735 1.223 6.991a1 1 0 0 0 1.97-.346l-1.278-7.302.713-.245.958 5.472a1 1 0 0 0 1.969-.345l-1.013-5.785.772-.265.55 3.126a1 1 0 0 0 1.97-.345l-.606-3.439a6.21 6.21 0 0 0 3.798-7.137.954.954 0 0 0-.04-.137l-.059-.154a1.034 1.034 0 0 0 .177-.095l3.666-2.484a4.038 4.038 0 0 1 3.713-.435L15.607 42.92a2.983 2.983 0 0 0-.313.588 11.89 11.89 0 0 1-1.96-.354l5.33-7.651a1 1 0 0 0-1.64-1.143l-5.636 8.09A9.316 9.316 0 0 1 6.19 36.09zM38.93 16.377 18.856 45.184a.98.98 0 0 1-1.609-1.12l20.955-30.075a1.634 1.634 0 0 1 .727 2.388zm21.015 11.54c-1.605-6.616-6.422-8.84-11.168-9.421a2.97 2.97 0 0 0-5.279-.822L23.425 46.48a3.517 3.517 0 0 0-.581 2.649c.17 1.457 1.495 2.36 2.622 3.095 4.118 2.736 7.117-.13 10.467-2.39l.738-.328a.061.061 0 0 0 .03-.013L51.9 42.747c2.403-1.105 1.714-3.51 2.02-5.876.163-1.817.404-3.725.765-5.91a7.72 7.72 0 0 1 3.419-.63 1.993 1.993 0 0 0 1.841-2.414zM25.065 47.623l20.073-28.807a.98.98 0 0 1 1.609 1.121L25.792 50.012a1.634 1.634 0 0 1-.727-2.389zm9.821.505-3.666 2.484a4.042 4.042 0 0 1-3.713.435l20.88-29.967a2.984 2.984 0 0 0 .313-.588 11.887 11.887 0 0 1 1.96.354l-5.33 7.652a1 1 0 1 0 1.64 1.142l5.637-8.09a9.316 9.316 0 0 1 5.196 6.359l-3.211-2.237a2.815 2.815 0 0 0-3.915.693l-2.97 4.262a2.82 2.82 0 0 0 .7 3.92l2.642 1.84-5.058 1.735-1.224-6.99a1 1 0 0 0-1.97.345l1.279 7.302-.713.245-.958-5.472a1 1 0 0 0-1.97.345l1.013 5.785-.771.265-.55-3.126a1 1 0 1 0-1.97.346l.605 3.438a6.193 6.193 0 0 0-3.757 7.274l.058.154a1.034 1.034 0 0 0-.177.095zm16.204-7.21-14.19 6.3a4.207 4.207 0 0 1 2.552-4.737l12.363-4.242c-.17 1 .292 2.17-.725 2.679zm1.638-10.387q-.368 2.223-.594 4.175l-2.583-1.8a.818.818 0 0 1-.203-1.136l2.969-4.262a.813.813 0 0 1 1.131-.196l1.897 1.322c-1.598.34-2.456.957-2.617 1.898z" opacity="1" data-original="url(#a)" class=""></path></g></svg>