<svg xmlns="http://www.w3.org/2000/svg" version="1.1" xmlns:xlink="http://www.w3.org/1999/xlink"
    width="24" height="24" x="0" y="0" viewBox="0 0 512 512"
    style="enable-background:new 0 0 512 512" xml:space="preserve" class="hovered-paths"><g><linearGradient id="a"><stop stop-opacity="1" stop-color="#e54e9c" offset="0"></stop><stop stop-opacity="1" stop-color="#57ebdb" offset="0"></stop><stop stop-opacity="1" stop-color="#7452a1" offset="1"></stop><stop stop-opacity="1" stop-color="#403ddb" offset="1"></stop></linearGradient><linearGradient xlink:href="#a" id="b" x1="153.437" x2="458.563" y1="-40.704" y2="264.422" gradientTransform="matrix(1 0 0 -1 -50 373)" gradientUnits="userSpaceOnUse"></linearGradient><linearGradient xlink:href="#a" id="c" x1="175.656" x2="480.783" y1="-62.923" y2="242.204" gradientTransform="matrix(1 0 0 -1 -50 373)" gradientUnits="userSpaceOnUse"></linearGradient><linearGradient xlink:href="#a" id="d" x1="175.655" x2="480.783" y1="-62.923" y2="242.204" gradientTransform="matrix(1 0 0 -1 -50 373)" gradientUnits="userSpaceOnUse"></linearGradient><path fill="url(#b)" d="m312.408 129.992 38.383-40.891c.04-.042.066-.092.101-.136.362-.401.703-.824.992-1.292a8.998 8.998 0 0 0 .394-8.756l-25.971-51.941a9 9 0 0 0-8.05-4.975H193.742a9 9 0 0 0-8.05 4.975l-25.971 51.941a8.998 8.998 0 0 0 .394 8.756c.289.468.63.891.992 1.292.035.045.062.094.102.136l38.383 40.891C125.408 153.88 71.579 223.556 71.579 305.579 71.579 407.269 154.31 490 256 490s184.421-82.731 184.421-184.421c0-82.023-53.829-151.699-128.013-175.587zm-72.161-8.155-13.773-29.896h59.051l-13.773 29.896a185.702 185.702 0 0 0-15.753-.68c-5.306 0-10.557.239-15.752.68zM267.404 40l17.435 33.941h-57.68L244.596 40zm22.992 84.387 14.948-32.446h18.093l-30.851 32.867c-.728-.147-1.459-.282-2.19-.421zm39.271-50.446h-24.591L287.64 40h25.056zM199.304 40h25.056l-17.436 33.941h-24.591zm-10.741 51.941h18.093l14.948 32.446c-.731.138-1.462.274-2.19.421zM256 472c-91.765 0-166.421-74.656-166.421-166.421S164.235 139.157 256 139.157s166.421 74.656 166.421 166.421S347.765 472 256 472z" opacity="1" data-original="url(#b)" class="hovered-path"></path><path fill="url(#c)" d="M334.866 397.958c-21.946 18.754-49.954 29.083-78.866 29.083-66.975 0-121.463-54.488-121.463-121.463 0-28.912 10.329-56.92 29.083-78.865a9 9 0 0 0-.995-12.689 8.999 8.999 0 0 0-12.689.995c-21.538 25.203-33.399 57.364-33.399 90.56 0 76.9 62.563 139.463 139.463 139.463 33.196 0 65.357-11.861 90.56-33.399 3.779-3.229 4.224-8.91.995-12.689a9 9 0 0 0-12.689-.996z" opacity="1" data-original="url(#c)" class=""></path><path fill="url(#d)" d="M256 166.115c-29.957 0-58.509 9.357-82.57 27.06a9 9 0 0 0 10.667 14.499c20.947-15.412 45.811-23.558 71.903-23.558 66.975 0 121.463 54.488 121.463 121.463 0 26.092-8.146 50.956-23.559 71.903a9 9 0 0 0 14.499 10.667c17.703-24.06 27.06-52.613 27.06-82.57 0-76.901-62.563-139.464-139.463-139.464z" opacity="1" data-original="url(#d)" class=""></path></g></svg>